# Alias OBJ Model File
# Exported from SketchUp, (c) 2000-2012 Trimble Navigation Limited
# File units = inches

mtllib Opt1-Massing.mtl

g Mesh1 Group3 Group2 Group1 Model

usemtl FrontColor
v 168.85 893.795 3676.27
vt 1123.4 1342.06
vn 1.06456e-15 1 -2.09715e-14
v -781.48 893.795 4301.82
vt -5.49401e-13 1162.06
v -304.173 893.795 5361.33
vt 3.60094e-13 -2.75179e-12
v 720.09 893.795 4899.9
vt 1123.4 -2.33036e-14
f 1/1/1 2/2/1 3/3/1 4/4/1 

vt -183.85 342
vn -0.549816 -1.48616e-14 -0.835286
vt -1321.58 342
v 168.85 551.795 3676.27
vt -1321.58 1.38694e-11
v -781.48 551.795 4301.82
vt -183.85 2.84213e-11
f 2/5/2 1/6/2 5/7/2 6/8/2 

vt 1342.06 342
vn 0.911752 -8.0322e-15 -0.410741
vt 4.99451e-12 342
v 720.09 551.795 4899.9
vt -4.62454e-13 3.1306e-11
vt 1342.06 5.84015e-12
f 1/9/3 4/10/3 7/11/3 5/12/3 

vt 1123.4 342
vn 0.410741 1.85141e-14 0.911752
vt 3.63798e-12 342
v -304.173 551.795 5361.33
vt 4.54747e-13 3.26281e-11
vt 1123.4 2.22826e-11
f 4/13/4 3/14/4 8/15/4 7/16/4 

vt -3.63798e-12 342
vn -0.911752 9.66794e-15 0.410741
vt -1162.06 342
vt -1162.06 1.13687e-11
vt 1.81899e-12 3.26281e-11
f 3/17/5 2/18/5 6/19/5 8/20/5 

vt 1.08963e-25 1162.06
vn -1.06456e-15 -1 2.09715e-14
vt -1123.4 1342.06
vt -1123.4 9.09495e-13
vt -4.54747e-13 -1.81899e-12
f 6/21/6 5/22/6 7/23/6 8/24/6 

g Mesh2 Group4 Group2 Group1 Model

v -304.173 365.795 5361.33
vt 9.09495e-13 150
vn 0.410741 1.56025e-14 0.911752
v 720.09 365.795 4899.9
vt 1123.4 150
v 720.09 551.795 4899.9
vt 1123.4 336
v -304.173 551.795 5361.33
vt 2.72848e-12 336
f 9/25/7 10/26/7 11/27/7 12/28/7 

vt 3.35253e-13 -3.38733e-11
vn -2.09846e-15 1 -1.39785e-14
vt 1123.4 -2.84164e-11
v 172.009 365.795 3683.29
vt 1123.4 1334.37
v -737.716 365.795 4282.1
vt 48 1162.06
v -781.48 365.795 4301.82
vt -1.48374e-12 1162.06
f 9/29/8 10/30/8 13/31/8 14/32/8 15/33/8 

v 172.009 551.795 3683.29
vt 1334.37 336
vn 0.911752 -1.12702e-13 -0.410741
vt -2.63753e-11 336
vt -2.63753e-11 150
vt 1334.37 150
f 16/34/9 11/35/9 10/36/9 13/37/9 

vt 1.58943e-12 -3.08602e-11
vn -2.39164e-15 1 -1.35624e-14
vt 1123.4 -3.08602e-11
v -737.716 551.795 4282.1
v -781.48 551.795 4301.82
vt 6.79939e-13 1162.06
f 12/38/10 11/39/10 16/31/10 17/32/10 18/40/10 

vt -1320.36 336
vn -0.549816 -1.17593e-14 -0.835286
vt -1320.36 150
vt -231.245 150
vt -231.245 336
f 16/41/11 13/42/11 14/43/11 17/44/11 

vt -48 336
vn -0.410741 -2.59136e-14 -0.911752
vt -48 150
vt -1.73531e-12 150
vt -4.4638e-12 336
f 17/45/12 14/46/12 15/47/12 18/48/12 

vt 3.18323e-11 150
vt 2.63753e-11 336
vt -1162.06 336
vt -1162.06 150
f 9/49/5 12/50/5 18/51/5 15/52/5 

g Mesh3 Group5 Group2 Group1 Model

v -1409.5 893.795 2909.17
vt 5.91019e-12 1174.2
vn -2.24433e-14 1 -6.99438e-15
v -927.207 893.795 3979.74
vt 5.91019e-12 2.16873e-13
v 32.2263 893.795 3363.26
vt 1127.98 168
v -381.06 893.795 2445.86
vt 1127.98 1174.2
f 19/53/13 20/54/13 21/55/13 22/56/13 

vt -5.45697e-12 336
vn -0.911752 -1.67073e-14 0.410741
vt -1174.2 336
v -1409.5 557.795 2909.17
vt -1174.2 -9.77051e-26
v -927.207 557.795 3979.74
vt 4.54747e-13 -9.11711e-26
f 20/57/14 19/58/14 23/59/14 24/60/14 

vt 3.91086e-13 336
vn -0.410741 -1.84168e-14 -0.911752
vt -1127.98 336
v -381.06 557.795 2445.86
vt -1127.98 2.1625e-11
vt -5.06588e-12 2.1625e-11
f 19/61/15 22/62/15 25/63/15 23/64/15 

vt 1174.2 336
vn 0.911752 1.64285e-14 -0.410741
vt 168 336
v 32.2263 557.795 3363.26
vt 168 1.8531e-11
vt 1174.2 -1.8531e-11
f 22/65/16 21/66/16 26/67/16 25/68/16 

vt 1140.42 336
vn 0.540574 2.03156e-14 0.841297
vt 8.03887e-13 336
vt 5.33044e-12 -2.54692e-26
vt 1140.42 3.70619e-11
f 21/69/17 20/70/17 24/71/17 26/72/17 

vt -5.45697e-12 -4.54747e-13
vn 2.24433e-14 -1 6.99438e-15
vt -5.45697e-12 1174.2
vt -1127.98 1174.2
vt -1127.98 168
f 24/73/18 23/74/18 25/75/18 26/76/18 

g Mesh4 Group6 Group2 Group1 Model

v -1409.5 557.795 2909.17
v -927.207 557.795 3979.74
v 32.2263 557.795 3363.26
v -381.06 557.795 2445.86
f 27/53/13 28/54/13 29/55/13 30/56/13 

v -1409.5 365.795 2909.17
vt -1174.2 144
v -927.207 365.795 3979.74
vt -1.36424e-12 144
f 28/57/14 27/58/14 31/77/14 32/78/14 

v -381.06 365.795 2445.86
vt -1127.98 144
vt -2.3374e-12 144
f 27/61/15 30/62/15 33/79/15 31/80/15 

v 32.2263 365.795 3363.26
vt 168 144
vt 1174.2 144
f 30/65/16 29/66/16 34/81/16 33/82/16 

vt 3.34947e-12 144
vt 1140.42 144
f 29/69/17 28/70/17 32/83/17 34/84/17 

vt -5.71617e-12 -8.81513e-13
vt -5.26142e-12 1174.2
f 32/85/18 31/86/18 33/75/18 34/76/18 

g Mesh5 Group7 Group2 Group1 Model

v 1037.05 1109.8 3110.38
vt 1125.41 192
vn 0.911752 1.32883e-15 -0.410741
v 1499.3 1109.8 4136.48
vt -5.6798e-28 192
v 1499.3 917.795 4136.48
vt -5.6798e-28 -9.06422e-28
v 1037.05 917.795 3110.38
vt 1125.41 -1.24524e-27
f 35/87/19 36/88/19 37/89/19 38/90/19 

v 1989.74 1109.8 2472.23
vt -1130.73 1315.95
vn -1.35866e-14 -1 1.42247e-14
v 2530.25 1109.8 3672.05
vt -1130.73 -5.09153e-13
vt 2.8181e-12 -1.41865e-12
vt 3.95497e-12 1125.41
v 1077.49 1109.8 3083.29
vt -48 1133.5
f 39/91/20 40/92/20 36/93/20 35/94/20 41/95/20 

v 1989.74 917.795 2472.23
vt -1315.95 2.92322e-11
vn -0.911752 2.58524e-14 0.410741
v 2530.25 917.795 3672.05
vt 2.79383e-12 2.92322e-11
vt 2.79383e-12 192
vt -1315.95 192
f 42/96/21 43/97/21 40/98/21 39/99/21 

vt 0 1125.41
vn 1.03352e-14 1 3.08977e-15
vt 6.82121e-13 3.92802e-41
vt 1130.73 9.09495e-13
vt 1130.73 1315.95
v 1077.49 917.795 3083.29
vt 48 1133.5
f 38/100/22 37/101/22 43/102/22 42/103/22 44/104/22 

vt -6.82121e-13 192
vn -0.410741 1.4013e-44 -0.911752
vt -1130.73 192
vt -1130.73 -2.18989e-58
vt -6.82121e-13 6.36727e-73
f 36/105/23 40/106/23 43/107/23 37/108/23 

usemtl _Translucent_Glass_Blue_1
v 1849.2 917.795 2160.28
vt -1130.73 1658.09
vn -1.18484e-14 -1 5.58061e-15
v 896.514 917.795 2798.43
vt 4.54747e-13 1467.56
v 936.956 917.795 2771.34
vt -48 1475.65
f 45/109/24 42/91/24 44/95/24 38/100/24 46/110/24 47/111/24 

vt 1333.67 192
vn 0.556528 5.70337e-16 0.830829
vt 235.676 192
vt 235.676 3.18968e-11
vt 1333.67 6.32942e-13
f 39/112/25 41/113/25 44/114/25 42/115/25 

vn 0.556528 7.48434e-14 0.830829
vt 186.999 192
vt 186.999 8.30589e-11
vt 235.676 1.14323e-10
f 41/113/26 35/116/26 38/117/26 44/118/26 

usemtl FrontColor
vt 1130.73 1658.09
vn 9.50442e-17 1 -1.43936e-14
v 1585.08 917.795 1573.99
vt 1130.73 2301.13
v 554.136 917.795 2038.43
vt 1.13687e-13 2301.13
vt -4.54747e-13 1467.56
vt 48 1475.65
f 45/119/27 48/120/27 49/121/27 46/122/27 47/123/27 

v 1849.2 1109.8 2160.28
vt -1658.09 192
vn -0.911752 1.65016e-15 0.410741
v 1585.08 1109.8 1573.99
vt -2301.13 192
vt -2301.13 1.86589e-12
vt -1658.09 1.86589e-12
f 50/124/28 51/125/28 48/126/28 45/127/28 

v 896.514 1109.8 2798.43
vt 2.89463e-12 1467.56
vn -1.97022e-14 -1 -5.58793e-15
v 554.136 1109.8 2038.43
vt 2.89463e-12 2301.13
vt -1130.73 2301.13
v 936.956 1109.8 2771.34
f 52/128/29 53/129/29 51/130/29 50/109/29 54/111/29 

vt 1467.56 -2.27374e-13
vn 0.911752 -1.05576e-15 -0.410741
vt 2301.13 -6.89138e-28
vt 2301.13 192
vt 1467.56 192
f 46/131/30 49/132/30 53/133/30 52/134/30 

vt 1130.73 192
vn 0.410741 -3.85357e-45 0.911752
vt 4.96901e-13 192
vt 4.96901e-13 -1.61228e-42
vt 1130.73 -1.61228e-42
f 51/135/31 53/136/31 49/137/31 48/138/31 

usemtl _Translucent_Glass_Blue_1
vt -243.851 192
vn -0.556528 -7.69633e-14 -0.830829
vt -292.527 192
vt -292.527 1.42642e-10
vt -243.851 1.11151e-10
f 52/139/32 54/140/32 47/141/32 46/142/32 

vn -0.556528 1.46037e-15 -0.830829
vt -1390.52 192
vt -1390.52 -2.11339e-12
vt -292.527 2.91505e-11
f 54/140/33 50/143/33 45/144/33 47/145/33 

g Mesh6 Group8 Group2 Group1 Model

usemtl FrontColor
v 1483.92 917.795 3985.48
vt 1004.3 -192
vn -0.911752 9.93674e-15 0.410741
v 1077.49 917.795 3083.29
vt 14.7949 -192
v 1077.49 725.795 3083.29
vt 14.7949 -384
v 1483.92 725.795 3985.48
vt 1004.3 -384
f 55/146/34 56/147/34 57/148/34 58/149/34 

v 2514.87 917.795 3521.04
vt 861.557 -1163.63
vn 3.37723e-15 1 -1.29992e-14
v 2030.18 917.795 2445.14
vt 1057.63 8.03264e-13
vt -89.0401 8.03264e-13
vt -253.456 -975.747
f 59/150/35 60/151/35 56/152/35 55/153/35 

v 2514.87 725.795 3521.04
vt -1004.3 -384
vn 0.911752 -4.83612e-15 -0.410741
v 2030.18 725.795 2445.14
vt 175.736 -384
vt 175.736 -192
vt -1004.3 -192
f 61/154/36 62/155/36 60/156/36 59/157/36 

vt 253.456 -975.747
vn -2.37319e-16 -1 9.1346e-16
vt 89.0401 -1.00984e-12
vt -1057.63 5.81773e-13
vt -861.557 -1163.63
f 58/158/37 57/159/37 62/160/37 61/161/37 

v 936.956 725.795 2771.34
vt -32.1887 337.392
vn 2.77428e-14 1 2.85008e-14
vt -89.0401 -1.62722e-11
vt 1057.63 -1.46806e-11
v 1889.64 725.795 2133.19
vt 1114.48 337.392
f 63/162/38 57/163/38 62/164/38 64/165/38 

vt 89.0401 -192
vn -0.556528 1.39799e-15 -0.830829
vt -1057.63 -192
vt -1057.63 -384
vt 89.0401 -384
f 56/166/39 60/167/39 62/168/39 57/169/39 

v 1889.64 917.795 2133.19
vt 1114.48 -192
vn 0.556528 -7.86783e-15 0.830829
v 936.956 917.795 2771.34
vt -32.1887 -192
vt -32.1887 -384
vt 1114.48 -384
f 65/170/40 66/171/40 63/172/40 64/173/40 

v 538.753 917.795 1887.42
vt 128.899 1293.39
vn 9.73514e-15 1 3.90381e-15
v 1569.7 917.795 1422.98
vt 1243.91 1105.51
f 67/174/41 66/162/41 65/165/41 68/175/41 

v 538.753 725.795 1887.42
vt -1296.83 -384
vn -0.911752 7.79391e-15 0.410741
vt -327.353 -384
vt -327.353 -192
vt -1296.83 -192
f 69/176/42 63/177/42 66/178/42 67/179/42 

v 1569.7 725.795 1422.98
vt -1243.91 1105.51
vn 1.04246e-15 -1 1.54858e-14
vt -1114.48 337.392
vt 32.1887 337.392
vt -128.899 1293.39
f 70/180/43 64/181/43 63/182/43 69/183/43 

vt 517.885 -192
vn 0.911752 -4.89544e-15 -0.410741
vt 517.885 -384
vt 1296.83 -384
vt 1296.83 -192
f 65/184/44 64/185/44 70/186/44 68/187/44 

vt 87.8024 -192
vn -0.410741 3.15544e-30 -0.911752
vt -1042.93 -192
vt -1042.93 -384
vt 87.8024 -384
f 67/188/45 68/189/45 70/190/45 69/191/45 

vt 1042.93 -192
vn 0.410741 -3.15544e-30 0.911752
vt -87.8024 -192
vt -87.8024 -384
vt 1042.93 -384
f 59/192/46 55/193/46 58/194/46 61/195/46 

g Mesh7 Group9 Group2 Group1 Model

v 1435.82 725.795 4112.44
vt -3.78653e-29 192
vn -0.911752 1.89327e-29 0.410741
v 490.656 725.795 2014.38
v 490.656 533.795 2014.38
vt -2301.13 0
v 1435.82 533.795 4112.44
vt -3.78653e-29 0
f 71/196/47 72/125/47 73/197/47 74/198/47 

vt 3.41061e-13 2301.13
vn 6.31089e-30 1 -0
vt 6.82121e-13 0
v 2466.77 725.795 3648
vt 1130.73 0
v 1521.6 725.795 1549.94
f 72/199/48 71/200/48 75/201/48 76/120/48 

vn 0.410741 -1.26117e-44 0.911752
vt 6.82121e-13 192
v 2466.77 533.795 3648
f 75/135/49 71/202/49 74/200/49 77/201/49 

vt -6.82121e-13 0
vn -6.31089e-30 -1 -0
vt -3.41061e-13 2301.13
v 1521.6 533.795 1549.94
vt -1130.73 0
f 74/203/50 73/204/50 78/130/50 77/205/50 

vt -4.68799e-13 192
vn -0.410741 1.05097e-45 -0.911752
vt -4.68799e-13 0
f 72/206/51 76/106/51 78/205/51 73/207/51 

vn 0.911752 -1.89327e-29 -0.410741
vt 1.25536e-13 192
vt 1.25536e-13 0
vt 2301.13 0
f 76/133/52 75/208/52 77/209/52 78/210/52 

g Mesh8 Group10 Group2 Group1 Model

v 1603.19 533.795 3958.07
v 658.021 533.795 1860.01
v 658.021 341.795 1860.01
v 1603.19 341.795 3958.07
f 79/196/47 80/125/47 81/197/47 82/198/47 

v 2634.13 533.795 3493.63
v 1688.97 533.795 1395.58
f 80/199/48 79/200/48 83/201/48 84/120/48 

v 2634.13 341.795 3493.63
f 83/135/49 79/202/49 82/200/49 85/201/49 

v 1688.97 341.795 1395.58
f 82/203/50 81/204/50 86/130/50 85/205/50 

f 80/206/51 84/106/51 86/205/51 81/207/51 

f 84/133/52 83/208/52 85/209/52 86/210/52 

g Mesh9 Group11 Group2 Group1 Model

usemtl _Translucent_Glass_Blue_1
v 1077.49 917.795 3083.29
vt -9.09495e-13 192
vn -0.911752 1.74197e-14 0.410741
v 936.956 917.795 2771.34
vt -342.148 192
v 936.956 725.795 2771.34
vt -342.148 2.11458e-11
v 1077.49 725.795 3083.29
vt -3.18323e-12 2.10321e-11
f 87/211/53 88/212/53 89/213/53 90/214/53 

vt 1.79704e-13 342.148
vn 1.94992e-14 1 8.73212e-16
vt 5.52299e-12 2.6001e-12
v 2030.18 917.795 2445.14
vt 1130.73 190.531
v 1889.64 917.795 2133.19
vt 1130.73 532.679
f 88/215/54 87/216/54 91/217/54 92/218/54 

vt 1146.67 192
vn 0.556528 -1.15773e-14 0.830829
vt 8.89542e-12 192
vt 5.01318e-12 2.10321e-11
v 2030.18 725.795 2445.14
vt 1146.67 -2.66572e-26
f 91/219/55 87/220/55 90/221/55 93/222/55 

vt -4.54747e-12 3.18323e-12
vn -1.94992e-14 -1 -8.73212e-16
vt 3.68353e-25 342.148
v 1889.64 725.795 2133.19
vt -1130.73 532.679
vt -1130.73 190.531
f 90/223/56 89/224/56 94/225/56 93/226/56 

vt -56.8514 192
vn -0.556528 1.15773e-14 -0.830829
vt -1203.52 192
vt -1203.52 2.11931e-12
vt -56.8514 1.72397e-11
f 88/227/57 92/228/57 94/229/57 89/230/57 

vt 532.679 192
vn 0.911752 -1.74197e-14 -0.410741
vt 190.531 192
vt 190.531 1.9697e-11
vt 532.679 2.57224e-11
f 92/231/58 91/232/58 93/233/58 94/234/58 

g Mesh10 Group12 Group1 Model

usemtl _Translucent_Glass_Blue_3
v -381.198 365.795 2538.05
vt 1089.99 1090.2
vn -2.09842e-14 1 -2.651e-15
v -1199.95 365.795 2906.9
vt 191.987 1090.2
v -763.907 365.795 3874.81
vt 191.987 28.5943
v 32.2263 365.795 3363.26
v -2.4136 365.795 3378.87
vt 1089.99 168
f 95/235/59 96/236/59 97/237/59 98/55/59 99/238/59 

v -1199.95 173.795 2906.9
vt -191.987 144
vn -0.410741 -1.73622e-14 -0.911752
vt -191.987 336
vt -1089.99 336
v -381.198 173.795 2538.05
vt -1089.99 144
f 100/239/60 96/240/60 95/241/60 101/242/60 

vt -1090.2 144
vn -0.911752 -2.34905e-14 0.410741
v -763.907 173.795 3874.81
vt -28.5943 144
vt -28.5943 336
vt -1090.2 336
f 100/243/61 102/244/61 97/245/61 96/246/61 

v 32.2263 173.795 3363.26
vn 2.18631e-14 -1 9.44887e-15
vt -191.987 28.5943
vt -191.987 1090.2
vt -1089.99 1090.2
v -2.4136 173.795 3378.87
vt -1089.99 168
f 103/76/62 102/247/62 100/248/62 101/249/62 104/250/62 

vn 0.540574 1.32128e-14 0.841297
vt 194.105 336
vt 194.105 144
f 98/69/63 97/251/63 102/252/63 103/84/63 

vn -0.410741 -1.52339e-14 -0.911752
f 98/62/64 103/79/64 104/242/64 99/241/64 

vt 1090.2 336
vt 1090.2 144
f 95/253/16 99/66/16 104/81/16 101/254/16 

g Mesh11 Group14 Group13 Group1 Model

v 142.916 365.795 3701.12
vt 1184.7 174
vn 0.911752 -1.05262e-14 -0.410741
v 629.522 365.795 4781.27
vt 4.4719e-12 174
v 629.522 191.795 4781.27
vt 8.33922e-13 2.89514e-11
v 142.916 191.795 3701.12
vt 1184.7 6.38452e-12
f 105/255/65 106/256/65 107/257/65 108/258/65 

vt 898.142 174
v -189.361 365.795 5150.18
vt 1.36424e-12 174
v -189.361 191.795 5150.18
vt 4.54747e-13 2.76543e-11
vt 898.142 1.94973e-11
f 106/259/4 109/260/4 110/261/4 107/262/4 

vt -1.81899e-12 174
v -606.963 365.795 4223.2
vt -1016.7 174
v -606.963 191.795 4223.2
vt -1016.7 9.06653e-12
vt 1.26218e-28 2.76543e-11
f 109/263/5 111/264/5 112/265/5 110/266/5 

vt -186.935 174
vn -0.571377 -1.92308e-14 -0.820688
vt -1100.65 174
vt -1100.65 1.61492e-11
vt -186.935 2.82853e-11
f 111/267/66 105/268/66 108/269/66 112/270/66 

vt 8.65501e-26 1016.7
vn -1.01315e-15 -1 2.09922e-14
vt -898.142 1184.7
vt -898.142 2.72848e-12
vt -4.54747e-13 -5.17788e-25
f 112/271/67 108/272/67 107/273/67 110/274/67 

g Mesh12 Group15 Group13 Group1 Model

v 1584.86 341.795 3917.38
vt -44.625 192
vn -0.911752 1.26218e-29 0.410741
v 658.021 341.795 1860.01
v 658.021 149.795 1860.01
v 1584.86 149.795 3917.38
vt -44.625 0
f 113/275/68 114/125/68 115/197/68 116/276/68 

vt 5.11591e-13 2301.13
vt 1.36424e-12 44.625
v 2615.81 341.795 3452.94
vt 1130.73 44.625
v 1688.97 341.795 1395.58
f 114/277/48 113/278/48 117/279/48 118/120/48 

vn 0.410741 -7.70714e-45 0.911752
vt 1.39149e-12 192
vt 1.39149e-12 0
v 2615.81 149.795 3452.94
f 117/135/69 113/280/69 116/281/69 119/201/69 

vt -1.36424e-12 44.625
vt -5.11591e-13 2301.13
v 1688.97 149.795 1395.58
vt -1130.73 44.625
f 116/282/50 115/283/50 120/130/50 119/284/50 

vt -6.39329e-13 192
vn -0.410741 7.00649e-46 -0.911752
vt -6.39329e-13 0
f 114/285/70 118/106/70 120/205/70 115/286/70 

vn 0.911752 -1.26218e-29 -0.410741
vt 44.625 192
vt 44.625 0
f 118/133/71 117/287/71 119/288/71 120/210/71 

g Mesh13 Group16 Group1 Model

usemtl _Translucent_Glass_Blue_1
v -782.007 893.795 4302.05
vt -71.2145 -10.6066
vn -1.52227e-14 1 -1.07762e-14
v 173.266 893.795 3676.34
vt 1056.77 167.522
v 30.3865 893.795 3359.18
vt 1056.77 515.379
v -927.207 893.795 3979.74
vt -71.2145 342.9
f 121/289/72 122/290/72 123/291/72 124/292/72 

v -782.007 193.795 4302.05
vt -71.9972 2.25067e-11
vn 0.547933 -5.15213e-15 0.836522
v 173.266 193.795 3676.34
vt 1069.96 1.32697e-11
v 173.266 385.795 3676.34
vt 1069.96 192
v 173.266 773.795 3676.34
vt 1069.96 580
vt 1069.96 700
vt -71.9972 700
f 125/293/73 126/294/73 127/295/73 128/296/73 122/297/73 121/298/73 

v -927.207 193.795 3979.74
vt 71.2145 342.9
vn -9.44148e-15 -1 3.62951e-15
v 30.3865 193.795 3359.18
vt -1056.77 515.379
v -168.149 193.795 3052.99
vt -1001.51 876.09
v 840.281 193.795 2399.11
vt -2189.53 1058.07
v 1038.82 193.795 2705.29
vt -2244.78 697.356
v 1179.09 193.795 3016.66
vt -2244.78 355.849
v 1374.62 193.795 3314.79
vt -2300.6 3.71724
v 368.796 193.795 3974.47
vt -1112.59 -184.611
vt -1056.77 167.522
vt 71.2145 -10.6066
f 129/299/74 130/300/74 131/301/74 132/302/74 133/303/74 134/304/74 135/305/74 136/306/74 126/307/74 125/308/74 

vt 18.5659 700
vn -0.543836 4.07602e-15 -0.839192
vt -1122.52 700
v 30.3865 773.795 3359.18
vt -1122.52 580
v 30.3865 385.795 3359.18
vt -1122.52 192
vt -1122.52 1.18475e-11
vt 18.5659 2.10845e-11
f 124/309/75 123/310/75 137/311/75 138/312/75 130/313/75 129/314/75 

vt 515.379 700
vn 0.911752 -2.29568e-14 -0.410741
vt 167.522 700
vt 167.522 580
vt 515.379 580
f 123/315/76 122/316/76 128/317/76 137/318/76 

vn 1.34151e-14 1 -2.51587e-14
v 1077.49 773.795 3083.29
vt 2124.78 336.827
v 936.956 773.795 2771.34
vt 2124.78 678.975
f 128/290/77 139/319/77 140/320/77 137/291/77 

vt 2151.31 580
vn 0.548427 -4.34293e-15 0.836199
v 1179.09 385.795 3016.66
vt 2272.81 192
v 1179.09 773.795 3016.66
vt 2272.81 580
f 139/321/78 128/296/78 127/295/78 141/322/78 142/323/78 

vt 2244.78 355.849
vn 1.11229e-14 1 -3.20411e-15
v 368.796 385.795 3974.47
vt 1112.59 -184.611
v 1374.62 385.795 3314.79
vt 2300.6 3.71724
f 141/324/79 127/290/79 143/325/79 144/326/79 

vt -2.13163e-12 192
vn -0.836199 -4.18184e-13 0.548427
vt -1.98952e-12 -4.34167e-10
vt 356.529 -4.35418e-10
vt 356.529 192
f 127/327/80 126/328/80 136/329/80 143/330/80 

vt 2272.81 -3.09239e-14
vn 0.548427 -3.42085e-15 0.836199
vt 1069.96 1.3242e-11
f 135/331/81 144/322/81 143/295/81 136/332/81 

vt 3.06954e-12 -9.4989e-10
vn 0.836199 4.17936e-13 -0.548427
vt 7.38964e-13 192
vt -356.529 192
vt -356.529 -9.51141e-10
f 134/333/82 141/334/82 144/335/82 135/336/82 

v 1038.82 385.795 2705.29
vt 697.356 192
vn 0.911752 -1.52354e-14 -0.410741
v 1038.82 773.795 2705.29
vt 697.356 580
vt 355.849 580
vt 355.849 192
vt 355.849 3.42001e-11
vt 697.356 3.42001e-11
f 145/337/83 146/338/83 142/339/83 141/340/83 134/341/83 133/342/83 

vt -2324.49 580
vn -0.544055 3.23703e-15 -0.839049
vt -2324.49 192
vt -1122.62 192
vt -1122.62 580
vt -2203.09 580
f 146/343/84 145/344/84 138/345/84 137/346/84 140/347/84 

vn 1.00905e-14 1 -4.7804e-15
vt 2244.78 697.356
v 840.281 385.795 2399.11
vt 2189.53 1058.07
v -168.149 385.795 3052.99
vt 1001.51 876.09
f 138/291/85 145/348/85 147/349/85 148/350/85 

vt 349.431 192
vn 0.839049 -2.41777e-13 -0.544055
vt 349.431 5.62008e-10
vt 714.349 5.62576e-10
vt 714.349 192
f 145/351/86 133/352/86 132/353/86 147/354/86 

vt -1122.62 1.2785e-11
vn -0.544055 1.47878e-15 -0.839049
vt -2324.49 -4.87932e-13
f 131/355/87 148/345/87 147/344/87 132/356/87 

vt -349.431 2.85253e-10
vn -0.839049 2.42274e-13 0.544055
vt -349.431 192
vt -714.349 192
vt -714.349 2.85822e-10
f 130/357/88 138/358/88 148/359/88 131/360/88 

vn 2.50216e-14 1 -1.21849e-14
f 146/348/89 140/320/89 139/319/89 142/324/89 

vt 10.6066 700
vn -0.911752 7.525e-15 0.410741
vt -342.9 700
vt -342.9 2.19741e-11
vt 10.6066 2.19741e-11
f 121/361/90 124/362/90 129/363/90 125/364/90 

g Mesh14 Group17 Group1 Model

v 1077.49 1109.8 3083.29
vt -48.6767 192
vn -0.556528 -9.87743e-15 -0.830829
v 1989.74 1109.8 2472.23
vt -1146.67 192
v 1989.74 917.795 2472.23
vt -1146.67 5.68434e-13
v 1077.49 917.795 3083.29
vt -48.6767 4.10409e-11
f 149/365/91 150/366/91 151/367/91 152/368/91 

v 1849.2 1109.8 2160.28
vt -1200.19 349.074
vn -1.89034e-14 -1 2.4551e-14
vt -1146.62 11.1451
vt -48.6744 0.473114
v 1037.05 1109.8 3110.38
vt 1.90178e-12 -1.04169e-12
v 896.514 1109.8 2798.43
vt -53.5695 337.928
v 936.956 1109.8 2771.34
vt -102.244 338.402
f 153/369/92 150/370/92 149/371/92 154/372/92 155/373/92 156/374/92 

vt -190.531 192
vn -0.911752 2.73193e-14 0.410741
vt -532.679 192
v 1849.2 917.795 2160.28
vt -532.679 4.29876e-11
vt -190.531 4.3556e-11
f 150/375/93 153/376/93 157/377/93 151/378/93 

vt 1203.52 192
vn 0.556528 9.87743e-15 0.830829
vt 105.528 192
v 936.956 917.795 2771.34
vt 105.528 4.37696e-11
vt 1203.52 3.29704e-12
f 153/379/94 156/380/94 158/381/94 157/382/94 

vt 56.8514 192
v 896.514 917.795 2798.43
vt 56.8514 4.50201e-11
f 156/380/94 155/383/94 159/384/94 158/381/94 

vt 342.148 192
vn 0.911752 -2.73193e-14 -0.410741
vt 1.80606e-12 192
v 1037.05 917.795 3110.38
vt 4.1354e-13 5.72982e-11
vt 342.148 4.17231e-11
f 155/385/95 154/386/95 160/387/95 159/388/95 

vt -5.80659e-12 192
vt 2.22943e-13 5.72982e-11
f 154/389/91 149/365/91 152/368/91 160/390/91 

vt 1146.62 11.1451
vn 1.89034e-14 1 -2.4551e-14
vt 1200.19 349.074
vt 102.244 338.402
vt 53.5695 337.928
vt -2.27374e-13 4.54747e-13
vt 48.6744 0.473114
f 151/391/96 157/392/96 158/393/96 159/394/96 160/395/96 152/396/96 

